<svg width="14" height="14" viewBox="0 0 14 14" fill="none" xmlns="http://www.w3.org/2000/svg">
<path d="M12.422 13.424H3.092C2.7012 13.424 2.32641 13.2688 2.05008 12.9924C1.77374 12.7161 1.6185 12.3413 1.6185 11.9505C1.6185 11.5597 1.77374 11.1849 2.05008 10.9086C2.32641 10.6322 2.7012 10.477 3.092 10.477H11.44M11.44 10.477C11.569 10.4773 11.6968 10.452 11.8161 10.4028C11.9354 10.3535 12.0437 10.2812 12.135 10.19C12.2262 10.0987 12.2985 9.99037 12.3478 9.87111C12.397 9.75185 12.4223 9.62403 12.422 9.495V1.638C12.4223 1.50897 12.397 1.38115 12.3478 1.26189C12.2985 1.14263 12.2262 1.03427 12.135 0.943034C12.0437 0.851794 11.9354 0.77947 11.8161 0.730214C11.6968 0.680957 11.569 0.655737 11.44 0.656H3.092C2.70817 0.656126 2.33955 0.806068 2.06462 1.0739C1.78969 1.34174 1.63016 1.70631 1.62 2.09V11.911M11.44 10.477V13.424" stroke="black" stroke-linecap="round" stroke-linejoin="round"/>
<path d="M7.524 8.236C7.85683 8.37726 8.22602 8.40872 8.57796 8.32582C8.92989 8.24292 9.24622 8.04997 9.481 7.775L9.727 7.528C9.8344 7.44197 9.90436 7.31775 9.92225 7.18131C9.94015 7.04488 9.90458 6.90681 9.823 6.796L9.027 6.001C8.91631 5.91931 8.77832 5.88358 8.64189 5.90128C8.50547 5.91899 8.38117 5.98876 8.295 6.096C8.20886 6.20296 8.08476 6.27254 7.94857 6.29024C7.81238 6.30794 7.67462 6.27239 7.564 6.191L6.29 4.92C6.20831 4.80931 6.17258 4.67132 6.19028 4.53489C6.20799 4.39847 6.27776 4.27417 6.385 4.188C6.4924 4.10197 6.56236 3.97775 6.58025 3.84131C6.59815 3.70488 6.56258 3.56681 6.481 3.456L5.685 2.66C5.57419 2.57842 5.43612 2.54285 5.29969 2.56075C5.16325 2.57864 5.03903 2.6486 4.953 2.756L4.708 3C4.43416 3.23559 4.24195 3.55184 4.15896 3.90342C4.07596 4.25499 4.10643 4.62382 4.246 4.957C5.05285 6.30231 6.17869 7.42815 7.524 8.235" stroke="black" stroke-linecap="round" stroke-linejoin="round"/>
</svg>
