<svg width="16" height="16" viewBox="0 0 16 16" fill="none" xmlns="http://www.w3.org/2000/svg">
<path d="M12.911 5.062C12.6925 3.91958 12.0826 2.88908 11.1862 2.14788C10.2899 1.40669 9.16312 1.00119 8 1.00119C6.83688 1.00119 5.71015 1.40669 4.81378 2.14788C3.9174 2.88908 3.30748 3.91958 3.089 5.062C2.16618 5.22626 1.3384 5.73033 0.768909 6.47481C0.199414 7.21928 -0.0704581 8.15013 0.0125128 9.08377C0.0954838 10.0174 0.525275 10.8861 1.21713 11.5185C1.90898 12.1509 2.81268 12.5011 3.75 12.5H4V11.5H3.75C3.03628 11.5019 2.34983 11.226 1.83593 10.7307C1.32202 10.2354 1.02096 9.55961 0.996471 8.84631C0.97198 8.133 1.22597 7.43815 1.7047 6.90879C2.18343 6.37944 2.84933 6.0571 3.5615 6.01L3.9795 5.9815L4.0245 5.565C4.1312 4.58515 4.596 3.67921 5.32971 3.02106C6.06343 2.3629 7.01435 1.9989 8 1.9989C8.98565 1.9989 9.93657 2.3629 10.6703 3.02106C11.404 3.67921 11.8688 4.58515 11.9755 5.565L12.0205 5.9815L12.4385 6.0105C13.1492 6.05947 13.8132 6.38255 14.2903 6.91159C14.7674 7.44064 15.0204 8.13431 14.996 8.84631C14.9715 9.5583 14.6715 10.233 14.1592 10.7281C13.647 11.2231 12.9624 11.4999 12.25 11.5H12V12.5H12.25C13.1873 12.5011 14.091 12.1509 14.7829 11.5185C15.4747 10.8861 15.9045 10.0174 15.9875 9.08377C16.0705 8.15013 15.8006 7.21928 15.2311 6.47481C14.6616 5.73033 13.8338 5.22626 12.911 5.062Z" fill="black"/>
<path d="M11.5 11V10H10.4495C10.3846 9.68713 10.2604 9.38959 10.0835 9.1235L10.8285 8.3785L10.1215 7.6715L9.3765 8.4165C9.11041 8.23961 8.81287 8.11537 8.5 8.0505V7H7.5V8.0505C7.18713 8.11537 6.88959 8.23961 6.6235 8.4165L5.8785 7.6715L5.1715 8.3785L5.9165 9.1235C5.73961 9.38959 5.61537 9.68713 5.5505 10H4.5V11H5.5505C5.61537 11.3129 5.73961 11.6104 5.9165 11.8765L5.1715 12.6215L5.8785 13.3285L6.6235 12.5835C6.88959 12.7604 7.18713 12.8846 7.5 12.9495V14H8.5V12.9495C8.81287 12.8846 9.11041 12.7604 9.3765 12.5835L10.1215 13.3285L10.8285 12.6215L10.0835 11.8765C10.2604 11.6104 10.3846 11.3129 10.4495 11H11.5ZM8 12C7.70333 12 7.41332 11.912 7.16664 11.7472C6.91997 11.5824 6.72771 11.3481 6.61418 11.074C6.50065 10.7999 6.47094 10.4983 6.52882 10.2074C6.5867 9.91639 6.72956 9.64912 6.93934 9.43934C7.14912 9.22956 7.41639 9.0867 7.70736 9.02882C7.99834 8.97094 8.29994 9.00065 8.57403 9.11418C8.84811 9.22771 9.08238 9.41997 9.2472 9.66665C9.41203 9.91332 9.5 10.2033 9.5 10.5C9.4996 10.8977 9.34144 11.279 9.06022 11.5602C8.779 11.8414 8.3977 11.9996 8 12Z" fill="black"/>
</svg>
